<?xml version="1.0" encoding="utf-8"?>
<!-- Generator: Adobe Illustrator 22.1.0, SVG Export Plug-In . SVG Version: 6.00 Build 0)  -->
<svg version="1.1" id="图层_1" xmlns="http://www.w3.org/2000/svg" xmlns:xlink="http://www.w3.org/1999/xlink" x="0px" y="0px"
	 viewBox="0 0 480 279.5" style="enable-background:new 0 0 480 279.5;" xml:space="preserve">
<style type="text/css">
	.st0{clip-path:url(#SVGID_2_);}
	.st1{opacity:0.15;clip-path:url(#SVGID_4_);}
	.st2{clip-path:url(#SVGID_6_);}
	.st3{clip-path:url(#SVGID_8_);fill:url(#SVGID_9_);}
	.st4{clip-path:url(#SVGID_11_);}
	.st5{clip-path:url(#SVGID_13_);fill:url(#SVGID_14_);}
	.st6{opacity:0.2;clip-path:url(#SVGID_4_);}
	.st7{clip-path:url(#SVGID_16_);}
	.st8{clip-path:url(#SVGID_18_);fill:url(#SVGID_19_);}
	
		.st9{clip-path:url(#SVGID_4_);fill:none;stroke:#000000;stroke-width:5;stroke-linecap:round;stroke-linejoin:round;stroke-miterlimit:10;}
	
		.st10{clip-path:url(#SVGID_2_);fill:none;stroke:#000000;stroke-width:5;stroke-linecap:round;stroke-linejoin:round;stroke-miterlimit:10;}
	
		.st11{clip-path:url(#SVGID_21_);fill:none;stroke:#000000;stroke-width:5;stroke-linecap:round;stroke-linejoin:round;stroke-miterlimit:10;}
	.st12{clip-path:url(#SVGID_23_);fill:url(#SVGID_24_);}
	.st13{clip-path:url(#SVGID_26_);fill:#FFFFFF;}
	.st14{clip-path:url(#SVGID_28_);fill:url(#SVGID_29_);}
	.st15{clip-path:url(#SVGID_31_);fill:#FFFFFF;}
	
		.st16{clip-path:url(#SVGID_31_);fill:none;stroke:#000000;stroke-width:5;stroke-linecap:round;stroke-linejoin:round;stroke-miterlimit:10;}
	.st17{clip-path:url(#SVGID_31_);fill:none;stroke:#000000;stroke-width:5;stroke-miterlimit:10;}
	.st18{opacity:0.3;clip-path:url(#SVGID_31_);}
	
		.st19{clip-path:url(#SVGID_33_);fill:none;stroke:#000000;stroke-width:5;stroke-linecap:round;stroke-linejoin:round;stroke-miterlimit:10;}
	
		.st20{clip-path:url(#SVGID_35_);fill:none;stroke:#000000;stroke-width:5;stroke-linecap:round;stroke-linejoin:round;stroke-miterlimit:10;}
	
		.st21{clip-path:url(#SVGID_37_);fill:none;stroke:#000000;stroke-width:5;stroke-linecap:round;stroke-linejoin:round;stroke-miterlimit:10;}
</style>
<g>
	<defs>
		<rect id="SVGID_1_" width="480" height="279.5"/>
	</defs>
	<clipPath id="SVGID_2_">
		<use xlink:href="#SVGID_1_"  style="overflow:visible;"/>
	</clipPath>
	<g class="st0">
		<defs>
			<rect id="SVGID_3_" width="480" height="279.5"/>
		</defs>
		<clipPath id="SVGID_4_">
			<use xlink:href="#SVGID_3_"  style="overflow:visible;"/>
		</clipPath>
		<g class="st1">
			<g>
				<defs>
					<rect id="SVGID_5_" x="48.5" y="55.5" width="388" height="194"/>
				</defs>
				<clipPath id="SVGID_6_">
					<use xlink:href="#SVGID_5_"  style="overflow:visible;"/>
				</clipPath>
				<g class="st2">
					<defs>
						<path id="SVGID_7_" d="M48.5,249.5c0-107.1,86.9-194,194-194s194,86.9,194,194"/>
					</defs>
					<clipPath id="SVGID_8_">
						<use xlink:href="#SVGID_7_"  style="overflow:visible;"/>
					</clipPath>
					
						<linearGradient id="SVGID_9_" gradientUnits="userSpaceOnUse" x1="0" y1="279.5" x2="1" y2="279.5" gradientTransform="matrix(388 0 0 -388 48.5 108598.5)">
						<stop  offset="0" style="stop-color:#94F3A5"/>
						<stop  offset="1" style="stop-color:#3ABDF3"/>
					</linearGradient>
					<rect x="48.5" y="55.5" class="st3" width="388" height="194"/>
				</g>
			</g>
		</g>
		<g class="st1">
			<g>
				<defs>
					<rect id="SVGID_10_" x="84.5" y="91.5" width="316" height="158"/>
				</defs>
				<clipPath id="SVGID_11_">
					<use xlink:href="#SVGID_10_"  style="overflow:visible;"/>
				</clipPath>
				<g class="st4">
					<defs>
						<path id="SVGID_12_" d="M84.5,249.5c0-87.3,70.7-158,158-158s158,70.7,158,158"/>
					</defs>
					<clipPath id="SVGID_13_">
						<use xlink:href="#SVGID_12_"  style="overflow:visible;"/>
					</clipPath>
					
						<linearGradient id="SVGID_14_" gradientUnits="userSpaceOnUse" x1="0" y1="279.5" x2="1" y2="279.5" gradientTransform="matrix(316 0 0 -316 84.5 88492.5)">
						<stop  offset="0" style="stop-color:#94F3A5"/>
						<stop  offset="1" style="stop-color:#3ABDF3"/>
					</linearGradient>
					<rect x="84.5" y="91.5" class="st5" width="316" height="158"/>
				</g>
			</g>
		</g>
		<g class="st6">
			<g>
				<defs>
					<rect id="SVGID_15_" x="122.5" y="129.5" width="240" height="120"/>
				</defs>
				<clipPath id="SVGID_16_">
					<use xlink:href="#SVGID_15_"  style="overflow:visible;"/>
				</clipPath>
				<g class="st7">
					<defs>
						<path id="SVGID_17_" d="M122.5,249.5c0-66.3,53.7-120,120-120s120,53.7,120,120"/>
					</defs>
					<clipPath id="SVGID_18_">
						<use xlink:href="#SVGID_17_"  style="overflow:visible;"/>
					</clipPath>
					
						<linearGradient id="SVGID_19_" gradientUnits="userSpaceOnUse" x1="0" y1="279.5" x2="1" y2="279.5" gradientTransform="matrix(240 0 0 -240 122.5 67269.5)">
						<stop  offset="0" style="stop-color:#94F3A5"/>
						<stop  offset="1" style="stop-color:#3ABDF3"/>
					</linearGradient>
					<rect x="122.5" y="129.5" class="st8" width="240" height="120"/>
				</g>
			</g>
		</g>
		<line class="st9" x1="459.5" y1="249.5" x2="477.5" y2="249.5"/>
	</g>
	<line class="st10" x1="330.8" y1="249.5" x2="447.2" y2="249.5"/>
	<line class="st10" x1="290" y1="249.5" x2="318.6" y2="249.5"/>
	<line class="st10" x1="35.7" y1="249.5" x2="274.6" y2="249.5"/>
	<g class="st0">
		<defs>
			<rect id="SVGID_20_" width="480" height="279.5"/>
		</defs>
		<clipPath id="SVGID_21_">
			<use xlink:href="#SVGID_20_"  style="overflow:visible;"/>
		</clipPath>
		<line class="st11" x1="2.5" y1="249.5" x2="23.4" y2="249.5"/>
		<line class="st11" x1="402.9" y1="277" x2="425" y2="277"/>
		<line class="st11" x1="383.9" y1="277" x2="389.9" y2="277"/>
		<line class="st11" x1="285" y1="277" x2="371.1" y2="277"/>
		<line class="st11" x1="237" y1="277" x2="268.3" y2="277"/>
	</g>
	<g class="st0">
		<defs>
			<path id="SVGID_22_" d="M297.6,42.5h-52.5h-51.7h-16c-7.1,0-12.9,5.8-12.9,12.9v157.1c0,7.1,5.8,12.9,12.9,12.9h135.1
				c7.1,0,12.9-5.8,12.9-12.9V55.4c0-7.1-5.8-12.9-12.9-12.9H297.6z"/>
		</defs>
		<clipPath id="SVGID_23_">
			<use xlink:href="#SVGID_22_"  style="overflow:visible;"/>
		</clipPath>
		
			<linearGradient id="SVGID_24_" gradientUnits="userSpaceOnUse" x1="0" y1="279.5" x2="1" y2="279.5" gradientTransform="matrix(161 0 0 -161 164.5 45133.5)">
			<stop  offset="0" style="stop-color:#94F3A5"/>
			<stop  offset="1" style="stop-color:#3ABDF3"/>
		</linearGradient>
		<rect x="164.5" y="42.5" class="st12" width="161" height="183"/>
	</g>
	<g class="st0">
		<defs>
			<rect id="SVGID_25_" width="480" height="279.5"/>
		</defs>
		<clipPath id="SVGID_26_">
			<use xlink:href="#SVGID_25_"  style="overflow:visible;"/>
		</clipPath>
		<path class="st13" d="M278.1,35.6h-14.4v-9.4c0-6.8-5.5-12.2-12.2-12.2c-6.8,0-12.2,5.5-12.2,12.2v9.4h-14.4
			c-5.2,0-9.4,4.2-9.4,9.4c0,5.2,4.2,9.4,9.4,9.4h53.3c5.2,0,9.4-4.2,9.4-9.4C287.5,39.8,283.3,35.6,278.1,35.6"/>
	</g>
	<g class="st0">
		<defs>
			<path id="SVGID_27_" d="M235,22.9v8.8h-13.6c-4.9,0-8.8,4-8.8,8.8s4,8.8,8.8,8.8h50.3c4.9,0,8.8-4,8.8-8.8s-4-8.8-8.8-8.8h-13.6
				v-8.8c0-6.4-5.2-11.6-11.6-11.6S235,16.5,235,22.9"/>
		</defs>
		<clipPath id="SVGID_28_">
			<use xlink:href="#SVGID_27_"  style="overflow:visible;"/>
		</clipPath>
		
			<linearGradient id="SVGID_29_" gradientUnits="userSpaceOnUse" x1="2.244529e-06" y1="279.5" x2="1" y2="279.5" gradientTransform="matrix(67.9821 0 0 -67.9821 212.5179 19031.3457)">
			<stop  offset="0" style="stop-color:#94F3A5"/>
			<stop  offset="1" style="stop-color:#3ABDF3"/>
		</linearGradient>
		<rect x="212.5" y="11.3" class="st14" width="68" height="38.1"/>
	</g>
	<g class="st0">
		<defs>
			<rect id="SVGID_30_" width="480" height="279.5"/>
		</defs>
		<clipPath id="SVGID_31_">
			<use xlink:href="#SVGID_30_"  style="overflow:visible;"/>
		</clipPath>
		<path class="st15" d="M299.3,209H185.4c-7.1,0-12.9-5.8-12.9-12.9V73.4c0-7.1,5.8-12.9,12.9-12.9h113.8c7.1,0,12.9,5.8,12.9,12.9
			v122.6C312.2,203.2,306.4,209,299.3,209"/>
		<path class="st16" d="M159,170V47.9c0-7.1,5.8-12.9,12.9-12.9h16"/>
		<path class="st16" d="M320,104.3v100.8c0,7.1-5.8,12.9-12.9,12.9H171.9c-7.1,0-12.9-5.8-12.9-12.9v-21.8"/>
		<line class="st16" x1="320" y1="77.1" x2="320" y2="88"/>
		<path class="st16" d="M292.1,35h15c7.1,0,12.9,5.8,12.9,12.9v18.2"/>
		<path class="st17" d="M294.2,203H185c-7.1,0-12.9-5.8-12.9-12.9V72.9c0-7.1,5.8-12.9,12.9-12.9h109.2c7.1,0,12.9,5.8,12.9,12.9
			v117.1C307.1,197.2,301.3,203,294.2,203z"/>
		<path class="st17" d="M270.5,27.7h-16.8V16.8c0-7.9-6.4-14.3-14.3-14.3c-7.9,0-14.3,6.4-14.3,14.3v10.9h-16.8
			c-6,0-10.9,4.9-10.9,10.9s4.9,10.9,10.9,10.9h62.1c6,0,10.9-4.9,10.9-10.9S276.6,27.7,270.5,27.7z"/>
		<g class="st18">
			<g>
				<defs>
					<rect id="SVGID_32_" x="192.5" y="92.5" width="93" height="5"/>
				</defs>
				<clipPath id="SVGID_33_">
					<use xlink:href="#SVGID_32_"  style="overflow:visible;"/>
				</clipPath>
				<line class="st19" x1="271.8" y1="95" x2="283" y2="95"/>
				<line class="st19" x1="195" y1="95" x2="253.7" y2="95"/>
			</g>
		</g>
		<g class="st18">
			<g>
				<defs>
					<rect id="SVGID_34_" x="192.5" y="172.5" width="93" height="5"/>
				</defs>
				<clipPath id="SVGID_35_">
					<use xlink:href="#SVGID_34_"  style="overflow:visible;"/>
				</clipPath>
				<line class="st20" x1="276" y1="175" x2="283" y2="175"/>
				<line class="st20" x1="220.6" y1="175" x2="268" y2="175"/>
				<line class="st20" x1="195" y1="175" x2="207.6" y2="175"/>
			</g>
		</g>
		<g class="st18">
			<g>
				<defs>
					<rect id="SVGID_36_" x="192.5" y="131.5" width="93" height="5"/>
				</defs>
				<clipPath id="SVGID_37_">
					<use xlink:href="#SVGID_36_"  style="overflow:visible;"/>
				</clipPath>
				<line class="st21" x1="195" y1="134" x2="283" y2="134"/>
			</g>
		</g>
	</g>
</g>
</svg>
